{"asset":{"version":"2.0","generator":"Blockbench 4.8.3 glTF exporter"},"scenes":[{"nodes":[21],"name":"blockbench_export"}],"scene":0,"nodes":[{"name":"face","mesh":0},{"rotation":[0,-0.1950903220161282,0,0.9807852804032304],"translation":[-0.007999999999999998,0.024000000000000004,0.01],"name":"eye1","mesh":1},{"rotation":[0,-0.17364817766693036,0,0.984807753012208],"translation":[-0.007875933458732342,0.0217627483031356,-0.011078884954515752],"name":"eye2","mesh":2},{"name":"mouth","mesh":3},{"name":"chin","mesh":4},{"name":"base","mesh":5},{"name":"glass1","mesh":6},{"name":"glassframe","mesh":7},{"name":"frame1","mesh":8},{"name":"frame2","mesh":9},{"name":"glass2","mesh":10},{"translation":[-0.01821105038915148,0.06975568154457155,0.009331578840344181],"name":"c7766cfe-397a-94c6-4fc8-c92746ab640d"},{"translation":[-0.01821105038915148,0.06975568154457155,0.009331578840344181],"name":"cd3a462b-dbd3-f08a-4f07-20800d95cab4"},{"translation":[-0.01821105038915148,0.06975568154457155,0.009331578840344181],"name":"d8f74bc8-a14b-a5b8-b720-3aebe25901e3"},{"translation":[-0.01821105038915148,0.06975568154457155,0.009331578840344181],"name":"1bfbee1d-aadc-5461-faa3-969c10f66d8b"},{"rotation":[-0.14877175425808142,-0.017268644228620386,-0.07390155304736017,0.9859550291563334],"translation":[0.005961281697018706,-0.0675570902077565,0.007856008284018643],"name":"7878ef53-4aef-e186-6370-92fc509afbfd","children":[11,12,13,14]},{"translation":[-0.02533561813004662,0.04612457179295644,0.0022561858185738658],"name":"0fc40acd-2901-4794-94b1-0fd4f226f663"},{"translation":[-0.02533561813004662,0.04612457179295644,0.0022561858185738658],"name":"66491b5e-8f0d-21c2-933f-5e71970cc3a6"},{"translation":[-0.02533561813004662,0.04612457179295644,0.0022561858185738658],"name":"b529a63c-0dc4-de4e-5748-2a3f4b1cfffb"},{"rotation":[-0.15232987874987797,0.0025200312497684323,-0.08250730475260058,0.9848765415751405],"translation":[0.010117284930700892,-0.042045270681310074,0.006758520084772378],"name":"34175533-a50c-e91a-b85f-2958980be266","children":[16,17,18]},{"rotation":[0.11568339599825991,0.6912967153629903,-0.1177202790119533,0.7034686482907382],"translation":[-0.014499999999999996,0.03799999999999998,0],"name":"d1d21167-27ab-341b-da27-4bbc9ca30246","children":[15,19]},{"children":[0,1,2,3,4,5,6,7,8,9,10,20]}],"bufferViews":[{"buffer":0,"byteOffset":0,"byteLength":21120,"target":34962,"byteStride":12},{"buffer":0,"byteOffset":21120,"byteLength":21120,"target":34962,"byteStride":12},{"buffer":0,"byteOffset":42240,"byteLength":14080,"target":34962,"byteStride":8},{"buffer":0,"byteOffset":56320,"byteLength":5184,"target":34963},{"buffer":0,"byteOffset":61504,"byteLength":3168,"target":34962,"byteStride":12},{"buffer":0,"byteOffset":64672,"byteLength":3168,"target":34962,"byteStride":12},{"buffer":0,"byteOffset":67840,"byteLength":2112,"target":34962,"byteStride":8},{"buffer":0,"byteOffset":69952,"byteLength":720,"target":34963},{"buffer":0,"byteOffset":70672,"byteLength":3168,"target":34962,"byteStride":12},{"buffer":0,"byteOffset":73840,"byteLength":3168,"target":34962,"byteStride":12},{"buffer":0,"byteOffset":77008,"byteLength":2112,"target":34962,"byteStride":8},{"buffer":0,"byteOffset":79120,"byteLength":720,"target":34963},{"buffer":0,"byteOffset":79840,"byteLength":9120,"target":34962,"byteStride":12},{"buffer":0,"byteOffset":88960,"byteLength":9120,"target":34962,"byteStride":12},{"buffer":0,"byteOffset":98080,"byteLength":6080,"target":34962,"byteStride":8},{"buffer":0,"byteOffset":104160,"byteLength":2160,"target":34963},{"buffer":0,"byteOffset":106320,"byteLength":4488,"target":34962,"byteStride":12},{"buffer":0,"byteOffset":110808,"byteLength":4488,"target":34962,"byteStride":12},{"buffer":0,"byteOffset":115296,"byteLength":2992,"target":34962,"byteStride":8},{"buffer":0,"byteOffset":118288,"byteLength":1056,"target":34963},{"buffer":0,"byteOffset":119344,"byteLength":16776,"target":34962,"byteStride":12},{"buffer":0,"byteOffset":136120,"byteLength":16776,"target":34962,"byteStride":12},{"buffer":0,"byteOffset":152896,"byteLength":11184,"target":34962,"byteStride":8},{"buffer":0,"byteOffset":164080,"byteLength":4140,"target":34963},{"buffer":0,"byteOffset":168220,"byteLength":1560,"target":34962,"byteStride":12},{"buffer":0,"byteOffset":169780,"byteLength":1560,"target":34962,"byteStride":12},{"buffer":0,"byteOffset":171340,"byteLength":1040,"target":34962,"byteStride":8},{"buffer":0,"byteOffset":172380,"byteLength":360,"target":34963},{"buffer":0,"byteOffset":172740,"byteLength":288,"target":34962,"byteStride":12},{"buffer":0,"byteOffset":173028,"byteLength":288,"target":34962,"byteStride":12},{"buffer":0,"byteOffset":173316,"byteLength":192,"target":34962,"byteStride":8},{"buffer":0,"byteOffset":173508,"byteLength":72,"target":34963},{"buffer":0,"byteOffset":173580,"byteLength":288,"target":34962,"byteStride":12},{"buffer":0,"byteOffset":173868,"byteLength":288,"target":34962,"byteStride":12},{"buffer":0,"byteOffset":174156,"byteLength":192,"target":34962,"byteStride":8},{"buffer":0,"byteOffset":174348,"byteLength":72,"target":34963},{"buffer":0,"byteOffset":174420,"byteLength":288,"target":34962,"byteStride":12},{"buffer":0,"byteOffset":174708,"byteLength":288,"target":34962,"byteStride":12},{"buffer":0,"byteOffset":174996,"byteLength":192,"target":34962,"byteStride":8},{"buffer":0,"byteOffset":175188,"byteLength":72,"target":34963},{"buffer":0,"byteOffset":175260,"byteLength":1560,"target":34962,"byteStride":12},{"buffer":0,"byteOffset":176820,"byteLength":1560,"target":34962,"byteStride":12},{"buffer":0,"byteOffset":178380,"byteLength":1040,"target":34962,"byteStride":8},{"buffer":0,"byteOffset":179420,"byteLength":360,"target":34963}],"buffers":[{"byteLength":179780,"uri":"data:application/octet-stream;base64,"}],"accessors":[{"bufferView":0,"componentType":5126,"count":1760,"max":[0.02241850458085537,0.03999999910593033,0.02500000037252903],"min":[-0.011418502777814865,0,-0.025558514520525932],"type":"VEC3"},{"bufferView":1,"componentType":5126,"count":1760,"max":[0.9840951561927795,0.9875743389129639,0.9704521298408508],"min":[-0.9840951561927795,-0.9875743389129639,-0.9258475303649902],"type":"VEC3"},{"bufferView":2,"componentType":5126,"count":1760,"max":[0.984375,0.484375],"min":[0.015625,0.015625],"type":"VEC2"},{"bufferView":3,"componentType":5123,"count":2592,"max":[1759],"min":[0],"type":"SCALAR"},{"bufferView":4,"componentType":5126,"count":264,"max":[0.0020000000949949026,0.006000000052154064,0.0020000000949949026],"min":[-0.0020000000949949026,-0.006000000052154064,-0.0020000000949949026],"type":"VEC3"},{"bufferView":5,"componentType":5126,"count":264,"max":[0.9623510837554932,0.7686479091644287,0.9623510837554932],"min":[-0.9623510837554932,-0.7686479091644287,-0.9623510837554932],"type":"VEC3"},{"bufferView":6,"componentType":5126,"count":264,"max":[0.984375,0.296875],"min":[0.015625,0.015625],"type":"VEC2"},{"bufferView":7,"componentType":5123,"count":360,"max":[263],"min":[0],"type":"SCALAR"},{"bufferView":8,"componentType":5126,"count":264,"max":[0.0019793296232819557,0.0034978678449988365,0.00198053615167737],"min":[-0.0020095696672797203,-0.0034978678449988365,-0.00198053615167737],"type":"VEC3"},{"bufferView":9,"componentType":5126,"count":264,"max":[0.9863457083702087,0.9137744307518005,0.9825547933578491],"min":[-0.9837855696678162,-0.9993908405303955,-0.9825547933578491],"type":"VEC3"},{"bufferView":10,"componentType":5126,"count":264,"max":[0.984375,0.296875],"min":[0.015625,0.015625],"type":"VEC2"},{"bufferView":11,"componentType":5123,"count":360,"max":[263],"min":[0],"type":"SCALAR"},{"bufferView":12,"componentType":5126,"count":760,"max":[-0.004175996407866478,0.012925739400088787,0.019215863198041916],"min":[-0.008999999612569809,0.007449312601238489,-0.019018715247511864],"type":"VEC3"},{"bufferView":13,"componentType":5126,"count":760,"max":[0.9945390224456787,0.9998626112937927,0.9300074577331543],"min":[-0.994728684425354,-0.9999127388000488,-0.9983500838279724],"type":"VEC3"},{"bufferView":14,"componentType":5126,"count":760,"max":[0.984375,0.796875],"min":[0.015625,0.015625],"type":"VEC2"},{"bufferView":15,"componentType":5123,"count":1080,"max":[759],"min":[0],"type":"SCALAR"},{"bufferView":16,"componentType":5126,"count":374,"max":[-0.006221935618668795,0.006974257994443178,0.009992929175496101],"min":[-0.006221935618668795,0.004424748942255974,-0.002271205186843872],"type":"VEC3"},{"bufferView":17,"componentType":5126,"count":374,"max":[1,0,0],"min":[-1,0,0],"type":"VEC3"},{"bufferView":18,"componentType":5126,"count":374,"max":[0.984375,0.421875],"min":[0.015625,0.015625],"type":"VEC2"},{"bufferView":19,"componentType":5123,"count":528,"max":[373],"min":[0],"type":"SCALAR"},{"bufferView":20,"componentType":5126,"count":1398,"max":[0.04625986889004707,0.04635029286146164,0.03816797211766243],"min":[-0.017889875918626785,0.02423752471804619,-0.02783322148025036],"type":"VEC3"},{"bufferView":21,"componentType":5126,"count":1398,"max":[0.9998849034309387,0.9979972243309021,0.9478334188461304],"min":[-0.9966201782226562,-0.9955676794052124,-0.9968932271003723],"type":"VEC3"},{"bufferView":22,"componentType":5126,"count":1398,"max":[0.9921875,0.3671875],"min":[0.0078125,0.0078125],"type":"VEC2"},{"bufferView":23,"componentType":5123,"count":2070,"max":[1397],"min":[0],"type":"SCALAR"},{"bufferView":24,"componentType":5126,"count":130,"max":[-0.010218306444585323,0.02175726369023323,-0.002755608642473817],"min":[-0.01815294474363327,0.008924655616283417,-0.023639900609850883],"type":"VEC3"},{"bufferView":25,"componentType":5126,"count":130,"max":[0.9881252646446228,0.9743546843528748,0.9753352999687195],"min":[-0.9978885054588318,-0.9836767911911011,-0.9753352999687195],"type":"VEC3"},{"bufferView":26,"componentType":5126,"count":130,"max":[0.984375,0.171875],"min":[0.015625,0.015625],"type":"VEC2"},{"bufferView":27,"componentType":5123,"count":180,"max":[129],"min":[0],"type":"SCALAR"},{"bufferView":28,"componentType":5126,"count":24,"max":[-0.014536288566887379,0.022480230778455734,0.0038771817926317453],"min":[-0.01677950844168663,0.01782667078077793,-0.0041412170976400375],"type":"VEC3"},{"bufferView":29,"componentType":5126,"count":24,"max":[0.998724639415741,0.9747796654701233,0.9757104516029358],"min":[-0.998724639415741,-0.9747796654701233,-0.9757104516029358],"type":"VEC3"},{"bufferView":30,"componentType":5126,"count":24,"max":[0.359375,0.046875],"min":[0.015625,0.015625],"type":"VEC2"},{"bufferView":31,"componentType":5123,"count":36,"max":[23],"min":[0],"type":"SCALAR"},{"bufferView":32,"componentType":5126,"count":24,"max":[0.016184039413928986,0.032300110906362534,0.023608040064573288],"min":[-0.015117829665541649,0.0236370787024498,0.020881490781903267],"type":"VEC3"},{"bufferView":33,"componentType":5126,"count":24,"max":[0.9835712313652039,0.9648875594139099,0.9810337424278259],"min":[-0.981830358505249,-0.9587358832359314,-0.9810281991958618],"type":"VEC3"},{"bufferView":34,"componentType":5126,"count":24,"max":[0.359375,0.046875],"min":[0.015625,0.015625],"type":"VEC2"},{"bufferView":35,"componentType":5123,"count":36,"max":[23],"min":[0],"type":"SCALAR"},{"bufferView":36,"componentType":5126,"count":24,"max":[0.016300324350595474,0.023146934807300568,-0.021274592727422714],"min":[-0.014825323596596718,0.014984965324401855,-0.029088061302900314],"type":"VEC3"},{"bufferView":37,"componentType":5126,"count":24,"max":[0.9715999364852905,0.9648875594139099,0.969585657119751],"min":[-0.9696726202964783,-0.9593711495399475,-0.9695806503295898],"type":"VEC3"},{"bufferView":38,"componentType":5126,"count":24,"max":[0.359375,0.046875],"min":[0.015625,0.015625],"type":"VEC2"},{"bufferView":39,"componentType":5123,"count":36,"max":[23],"min":[0],"type":"SCALAR"},{"bufferView":40,"componentType":5126,"count":130,"max":[-0.011427040211856365,0.026621932163834572,0.023496340960264206],"min":[-0.018255891278386116,0.013446987606585026,0.002696650568395853],"type":"VEC3"},{"bufferView":41,"componentType":5126,"count":130,"max":[0.9904984831809998,0.971148669719696,0.9811939001083374],"min":[-0.9904984831809998,-0.9780727028846741,-0.9811939001083374],"type":"VEC3"},{"bufferView":42,"componentType":5126,"count":130,"max":[0.984375,0.171875],"min":[0.015625,0.015625],"type":"VEC2"},{"bufferView":43,"componentType":5123,"count":180,"max":[129],"min":[0],"type":"SCALAR"}],"materials":[{"pbrMetallicRoughness":{"metallicFactor":0,"roughnessFactor":1,"baseColorTexture":{"index":0}},"alphaMode":"MASK","alphaCutoff":0.05,"doubleSided":true},{"pbrMetallicRoughness":{"metallicFactor":0,"roughnessFactor":1,"baseColorTexture":{"index":1}},"alphaMode":"MASK","alphaCutoff":0.05,"doubleSided":true},{"pbrMetallicRoughness":{"metallicFactor":0,"roughnessFactor":1,"baseColorTexture":{"index":2}},"alphaMode":"MASK","alphaCutoff":0.05,"doubleSided":true},{"pbrMetallicRoughness":{"metallicFactor":0,"roughnessFactor":1,"baseColorTexture":{"index":3}},"alphaMode":"MASK","alphaCutoff":0.05,"doubleSided":true},{"pbrMetallicRoughness":{"metallicFactor":0,"roughnessFactor":1,"baseColorTexture":{"index":4}},"alphaMode":"MASK","alphaCutoff":0.05,"doubleSided":true},{"pbrMetallicRoughness":{"metallicFactor":0,"roughnessFactor":1,"baseColorTexture":{"index":5}},"alphaMode":"MASK","alphaCutoff":0.05,"doubleSided":true},{"pbrMetallicRoughness":{"metallicFactor":0,"roughnessFactor":1,"baseColorTexture":{"index":6}},"alphaMode":"MASK","alphaCutoff":0.05,"doubleSided":true},{"pbrMetallicRoughness":{"metallicFactor":0,"roughnessFactor":1,"baseColorTexture":{"index":7}},"alphaMode":"MASK","alphaCutoff":0.05,"doubleSided":true}],"textures":[{"sampler":0,"source":0,"name":"face.png"},{"sampler":1,"source":1,"name":"eye.png"},{"sampler":2,"source":2,"name":"mouth.png"},{"sampler":3,"source":3,"name":"chin.png"},{"sampler":4,"source":4,"name":"hat.png"},{"sampler":5,"source":5,"name":"shades.png"},{"sampler":6,"source":6,"name":"glassframe.png"},{"sampler":7,"source":7,"name":"frame1.png"}],"samplers":[{"magFilter":9728,"minFilter":9728,"wrapS":33071,"wrapT":33071},{"magFilter":9728,"minFilter":9728,"wrapS":33071,"wrapT":33071},{"magFilter":9728,"minFilter":9728,"wrapS":33071,"wrapT":33071},{"magFilter":9728,"minFilter":9728,"wrapS":33071,"wrapT":33071},{"magFilter":9728,"minFilter":9728,"wrapS":33071,"wrapT":33071},{"magFilter":9728,"minFilter":9728,"wrapS":33071,"wrapT":33071},{"magFilter":9728,"minFilter":9728,"wrapS":33071,"wrapT":33071},{"magFilter":9728,"minFilter":9728,"wrapS":33071,"wrapT":33071}],"images":[{"mimeType":"image/png","uri":"data:image/png;base64,"},{"mimeType":"image/png","uri":"data:image/png;base64,"},{"mimeType":"image/png","uri":"data:image/png;base64,"},{"mimeType":"image/png","uri":"data:image/png;base64,"},{"mimeType":"image/png","uri":"data:image/png;base64,"},{"mimeType":"image/png","uri":"data:image/png;base64,"},{"mimeType":"image/png","uri":"data:image/png;base64,"},{"mimeType":"image/png","uri":"data:image/png;base64,"}],"meshes":[{"primitives":[{"mode":4,"attributes":{"POSITION":0,"NORMAL":1,"TEXCOORD_0":2},"indices":3,"material":0}]},{"primitives":[{"mode":4,"attributes":{"POSITION":4,"NORMAL":5,"TEXCOORD_0":6},"indices":7,"material":1}]},{"primitives":[{"mode":4,"attributes":{"POSITION":8,"NORMAL":9,"TEXCOORD_0":10},"indices":11,"material":1}]},{"primitives":[{"mode":4,"attributes":{"POSITION":12,"NORMAL":13,"TEXCOORD_0":14},"indices":15,"material":2}]},{"primitives":[{"mode":4,"attributes":{"POSITION":16,"NORMAL":17,"TEXCOORD_0":18},"indices":19,"material":3}]},{"primitives":[{"mode":4,"attributes":{"POSITION":20,"NORMAL":21,"TEXCOORD_0":22},"indices":23,"material":4}]},{"primitives":[{"mode":4,"attributes":{"POSITION":24,"NORMAL":25,"TEXCOORD_0":26},"indices":27,"material":5}]},{"primitives":[{"mode":4,"attributes":{"POSITION":28,"NORMAL":29,"TEXCOORD_0":30},"indices":31,"material":6}]},{"primitives":[{"mode":4,"attributes":{"POSITION":32,"NORMAL":33,"TEXCOORD_0":34},"indices":35,"material":7}]},{"primitives":[{"mode":4,"attributes":{"POSITION":36,"NORMAL":37,"TEXCOORD_0":38},"indices":39,"material":7}]},{"primitives":[{"mode":4,"attributes":{"POSITION":40,"NORMAL":41,"TEXCOORD_0":42},"indices":43,"material":5}]}]}