{"asset":{"version":"2.0","generator":"Blockbench 4.8.3 glTF exporter"},"scenes":[{"nodes":[14],"name":"blockbench_export"}],"scene":0,"nodes":[{"translation":[1.1,0,0],"name":"face","mesh":0},{"translation":[0,-0.6000000000000001,0],"name":"eye1","mesh":1},{"rotation":[0.7071067811865475,0,0,0.7071067811865476],"translation":[0.30000000000000004,-1.1,0],"name":"mouth","mesh":2},{"rotation":[-0.766044443118978,0,0,0.6427876096865394],"translation":[0.8999999999999999,3.299999999999999,0.8999999999999999],"name":"chin","mesh":3},{"rotation":[0.0012174183314141703,-0.06974584949530103,-0.01740989325235717,0.9974121164231596],"translation":[0.09999999999999992,-1.1,-4],"name":"eye2","mesh":4},{"name":"jman","children":[0,1,2,3,4]},{"translation":[0,1.9999999999999996,0],"name":"base","mesh":5},{"rotation":[-0.025845301222556592,-0.9611160167843875,0.08323547259799413,-0.26203030127566673],"translation":[0.6000000000000001,-0.4,0.7999999999999999],"name":"hat","children":[6]},{"rotation":[0.36946227827088524,-0.6029076421267899,0.5896463195190141,0.3902783851018169],"name":"glass1","mesh":6},{"rotation":[0.44018432095433985,-0.5533875347222467,0.5533875347222477,0.44018432095434074],"name":"glass2","mesh":7},{"rotation":[-0.010240967010384114,-0.13012382353035148,-0.07778786728740777,0.9883885677441897],"name":"glassframe","mesh":8},{"rotation":[0.41273705482135625,0.410534798317837,0.5651998630441659,0.5845155410785772],"name":"frame1","mesh":9},{"rotation":[0.46390378825785583,0.4639037882578516,0.5336602620019739,0.5336602620019684],"name":"frame2","mesh":10},{"rotation":[-0.10069496134082839,0.14725082872033005,0.08612051795787251,0.9801841534060898],"translation":[1.0999999999999996,-0.6000000000000001,0.8],"name":"shades","children":[8,9,10,11,12]},{"children":[5,7,13]}],"bufferViews":[{"buffer":0,"byteOffset":0,"byteLength":21120,"target":34962,"byteStride":12},{"buffer":0,"byteOffset":21120,"byteLength":21120,"target":34962,"byteStride":12},{"buffer":0,"byteOffset":42240,"byteLength":14080,"target":34962,"byteStride":8},{"buffer":0,"byteOffset":56320,"byteLength":5184,"target":34963},{"buffer":0,"byteOffset":61504,"byteLength":3168,"target":34962,"byteStride":12},{"buffer":0,"byteOffset":64672,"byteLength":3168,"target":34962,"byteStride":12},{"buffer":0,"byteOffset":67840,"byteLength":2112,"target":34962,"byteStride":8},{"buffer":0,"byteOffset":69952,"byteLength":720,"target":34963},{"buffer":0,"byteOffset":70672,"byteLength":9120,"target":34962,"byteStride":12},{"buffer":0,"byteOffset":79792,"byteLength":9120,"target":34962,"byteStride":12},{"buffer":0,"byteOffset":88912,"byteLength":6080,"target":34962,"byteStride":8},{"buffer":0,"byteOffset":94992,"byteLength":2160,"target":34963},{"buffer":0,"byteOffset":97152,"byteLength":4488,"target":34962,"byteStride":12},{"buffer":0,"byteOffset":101640,"byteLength":4488,"target":34962,"byteStride":12},{"buffer":0,"byteOffset":106128,"byteLength":2992,"target":34962,"byteStride":8},{"buffer":0,"byteOffset":109120,"byteLength":1056,"target":34963},{"buffer":0,"byteOffset":110176,"byteLength":3168,"target":34962,"byteStride":12},{"buffer":0,"byteOffset":113344,"byteLength":3168,"target":34962,"byteStride":12},{"buffer":0,"byteOffset":116512,"byteLength":2112,"target":34962,"byteStride":8},{"buffer":0,"byteOffset":118624,"byteLength":720,"target":34963},{"buffer":0,"byteOffset":119344,"byteLength":16776,"target":34962,"byteStride":12},{"buffer":0,"byteOffset":136120,"byteLength":16776,"target":34962,"byteStride":12},{"buffer":0,"byteOffset":152896,"byteLength":11984,"target":34962,"byteStride":8},{"buffer":0,"byteOffset":164880,"byteLength":4140,"target":34963},{"buffer":0,"byteOffset":169020,"byteLength":1560,"target":34962,"byteStride":12},{"buffer":0,"byteOffset":170580,"byteLength":1560,"target":34962,"byteStride":12},{"buffer":0,"byteOffset":172140,"byteLength":1040,"target":34962,"byteStride":8},{"buffer":0,"byteOffset":173180,"byteLength":360,"target":34963},{"buffer":0,"byteOffset":173540,"byteLength":1560,"target":34962,"byteStride":12},{"buffer":0,"byteOffset":175100,"byteLength":1560,"target":34962,"byteStride":12},{"buffer":0,"byteOffset":176660,"byteLength":1040,"target":34962,"byteStride":8},{"buffer":0,"byteOffset":177700,"byteLength":360,"target":34963},{"buffer":0,"byteOffset":178060,"byteLength":288,"target":34962,"byteStride":12},{"buffer":0,"byteOffset":178348,"byteLength":288,"target":34962,"byteStride":12},{"buffer":0,"byteOffset":178636,"byteLength":192,"target":34962,"byteStride":8},{"buffer":0,"byteOffset":178828,"byteLength":72,"target":34963},{"buffer":0,"byteOffset":178900,"byteLength":288,"target":34962,"byteStride":12},{"buffer":0,"byteOffset":179188,"byteLength":288,"target":34962,"byteStride":12},{"buffer":0,"byteOffset":179476,"byteLength":192,"target":34962,"byteStride":8},{"buffer":0,"byteOffset":179668,"byteLength":72,"target":34963},{"buffer":0,"byteOffset":179740,"byteLength":288,"target":34962,"byteStride":12},{"buffer":0,"byteOffset":180028,"byteLength":288,"target":34962,"byteStride":12},{"buffer":0,"byteOffset":180316,"byteLength":192,"target":34962,"byteStride":8},{"buffer":0,"byteOffset":180508,"byteLength":72,"target":34963}],"buffers":[{"byteLength":180580,"uri":"data:application/octet-stream;base64,"}],"accessors":[{"bufferView":0,"componentType":5126,"count":1760,"max":[3.3837006092071533,8,5],"min":[-3.3837006092071533,0,-5.111702919006348],"type":"VEC3"},{"bufferView":1,"componentType":5126,"count":1760,"max":[0.9840951561927795,0.9875743389129639,0.9704521298408508],"min":[-0.9840951561927795,-0.9875743389129639,-0.9258475303649902],"type":"VEC3"},{"bufferView":2,"componentType":5126,"count":1760,"max":[0.984375,0.484375],"min":[0.015625,0.015625],"type":"VEC2"},{"bufferView":3,"componentType":5123,"count":2592,"max":[1759],"min":[0],"type":"SCALAR"},{"bufferView":4,"componentType":5126,"count":264,"max":[-1.2000000476837158,6.599999904632568,2.4000000953674316],"min":[-2,4.199999809265137,1.600000023841858],"type":"VEC3"},{"bufferView":5,"componentType":5126,"count":264,"max":[0.9623510837554932,0.7686479091644287,0.9623510837554932],"min":[-0.9623510837554932,-0.7686479091644287,-0.9623510837554932],"type":"VEC3"},{"bufferView":6,"componentType":5126,"count":264,"max":[0.984375,0.296875],"min":[0.015625,0.015625],"type":"VEC2"},{"bufferView":7,"componentType":5123,"count":360,"max":[263],"min":[0],"type":"SCALAR"},{"bufferView":8,"componentType":5126,"count":760,"max":[-1.1351993083953857,3.843172788619995,-2.589862585067749],"min":[-2.0999999046325684,-3.8037428855895996,-3.685147762298584],"type":"VEC3"},{"bufferView":9,"componentType":5126,"count":760,"max":[0.9945390224456787,0.9300074577331543,0.9999127388000488],"min":[-0.994728684425354,-0.9983500838279724,-0.9998626112937927],"type":"VEC3"},{"bufferView":10,"componentType":5126,"count":760,"max":[0.984375,0.796875],"min":[0.015625,0.015625],"type":"VEC2"},{"bufferView":11,"componentType":5123,"count":1080,"max":[759],"min":[0],"type":"SCALAR"},{"bufferView":12,"componentType":5126,"count":374,"max":[-2.1443870067596436,1.720737338066101,-1.819734811782837],"min":[-2.1443870067596436,-0.7446666955947876,-2.31807017326355],"type":"VEC3"},{"bufferView":13,"componentType":5126,"count":374,"max":[1,0,0],"min":[-1,0,0],"type":"VEC3"},{"bufferView":14,"componentType":5126,"count":374,"max":[0.984375,0.421875],"min":[0.015625,0.015625],"type":"VEC2"},{"bufferView":15,"componentType":5123,"count":528,"max":[373],"min":[0],"type":"SCALAR"},{"bufferView":16,"componentType":5126,"count":264,"max":[-1.2000000476837158,6.099999904632568,2.4000000953674316],"min":[-2,4.699999809265137,1.600000023841858],"type":"VEC3"},{"bufferView":17,"componentType":5126,"count":264,"max":[0.9555320143699646,0.8996006846427917,0.9555320143699646],"min":[-0.9826318621635437,-1,-0.9555320143699646],"type":"VEC3"},{"bufferView":18,"componentType":5126,"count":264,"max":[0.984375,0.296875],"min":[0.015625,0.015625],"type":"VEC2"},{"bufferView":19,"componentType":5123,"count":360,"max":[263],"min":[0],"type":"SCALAR"},{"bufferView":20,"componentType":5126,"count":1398,"max":[4.276783466339111,7.699999809265137,5.674876689910889],"min":[-8.059660911560059,4.2555108070373535,-5.894121170043945],"type":"VEC3"},{"bufferView":21,"componentType":5126,"count":1398,"max":[0.9951953291893005,0.9960500597953796,0.9761227965354919],"min":[-0.9975954294204712,-0.9996693134307861,-0.9861322641372681],"type":"VEC3"},{"bufferView":22,"componentType":5126,"count":1498,"max":[0.9921875,0.3671875],"min":[0,0],"type":"VEC2"},{"bufferView":23,"componentType":5123,"count":2070,"max":[1397],"min":[0],"type":"SCALAR"},{"bufferView":24,"componentType":5126,"count":130,"max":[-0.10000000149011612,3.9000000953674316,-3.700000047683716],"min":[-4.099999904632568,2.9000000953674316,-5.800000190734863],"type":"VEC3"},{"bufferView":25,"componentType":5126,"count":130,"max":[1,1,1],"min":[-1,-1,-1],"type":"VEC3"},{"bufferView":26,"componentType":5126,"count":130,"max":[0.984375,0.171875],"min":[0.015625,0.015625],"type":"VEC2"},{"bufferView":27,"componentType":5123,"count":180,"max":[129],"min":[0],"type":"SCALAR"},{"bufferView":28,"componentType":5126,"count":130,"max":[4.5,3.700000047683716,-3.799999952316284],"min":[0.5,2.700000047683716,-5.900000095367432],"type":"VEC3"},{"bufferView":29,"componentType":5126,"count":130,"max":[1,1,1],"min":[-1,-1,-1],"type":"VEC3"},{"bufferView":30,"componentType":5126,"count":130,"max":[0.984375,0.171875],"min":[0.015625,0.015625],"type":"VEC2"},{"bufferView":31,"componentType":5123,"count":180,"max":[129],"min":[0],"type":"SCALAR"},{"bufferView":32,"componentType":5126,"count":24,"max":[-3.799999952316284,5.199999809265137,0.8999999761581421],"min":[-4.199999809265137,4.599999904632568,-0.6000000238418579],"type":"VEC3"},{"bufferView":33,"componentType":5126,"count":24,"max":[1,1,1],"min":[-1,-1,-1],"type":"VEC3"},{"bufferView":34,"componentType":5126,"count":24,"max":[0.359375,0.046875],"min":[0.015625,0.015625],"type":"VEC2"},{"bufferView":35,"componentType":5123,"count":36,"max":[23],"min":[0],"type":"SCALAR"},{"bufferView":36,"componentType":5126,"count":24,"max":[5.699999809265137,5.000417709350586,3.4000000953674316],"min":[5.192099094390869,4.599582672119141,-2.9000000953674316],"type":"VEC3"},{"bufferView":37,"componentType":5126,"count":24,"max":[1,0.9999989867210388,0.9999810457229614],"min":[-0.9994139671325684,-0.999998927116394,-0.9999934434890747],"type":"VEC3"},{"bufferView":38,"componentType":5126,"count":24,"max":[0.359375,0.046875],"min":[0.015625,0.015625],"type":"VEC2"},{"bufferView":39,"componentType":5123,"count":36,"max":[23],"min":[0],"type":"SCALAR"},{"bufferView":40,"componentType":5126,"count":24,"max":[5.699999809265137,-4.699582576751709,4],"min":[5.192099094390869,-5.100417613983154,-2.299999952316284],"type":"VEC3"},{"bufferView":41,"componentType":5126,"count":24,"max":[1,0.9999989867210388,0.9999810457229614],"min":[-0.9994139671325684,-0.999998927116394,-0.9999934434890747],"type":"VEC3"},{"bufferView":42,"componentType":5126,"count":24,"max":[0.359375,0.046875],"min":[0.015625,0.015625],"type":"VEC2"},{"bufferView":43,"componentType":5123,"count":36,"max":[23],"min":[0],"type":"SCALAR"}],"materials":[{"pbrMetallicRoughness":{"metallicFactor":0,"roughnessFactor":1,"baseColorTexture":{"index":0}},"alphaMode":"MASK","alphaCutoff":0.05,"doubleSided":true},{"pbrMetallicRoughness":{"metallicFactor":0,"roughnessFactor":1,"baseColorTexture":{"index":1}},"alphaMode":"MASK","alphaCutoff":0.05,"doubleSided":true},{"pbrMetallicRoughness":{"metallicFactor":0,"roughnessFactor":1,"baseColorTexture":{"index":2}},"alphaMode":"MASK","alphaCutoff":0.05,"doubleSided":true},{"pbrMetallicRoughness":{"metallicFactor":0,"roughnessFactor":1,"baseColorTexture":{"index":3}},"alphaMode":"MASK","alphaCutoff":0.05,"doubleSided":true},{"pbrMetallicRoughness":{"metallicFactor":0,"roughnessFactor":1,"baseColorTexture":{"index":4}},"alphaMode":"MASK","alphaCutoff":0.05,"doubleSided":true},{"pbrMetallicRoughness":{"metallicFactor":0,"roughnessFactor":1,"baseColorTexture":{"index":5}},"alphaMode":"MASK","alphaCutoff":0.05,"doubleSided":true},{"pbrMetallicRoughness":{"metallicFactor":0,"roughnessFactor":1,"baseColorTexture":{"index":6}},"alphaMode":"MASK","alphaCutoff":0.05,"doubleSided":true},{"pbrMetallicRoughness":{"metallicFactor":0,"roughnessFactor":1,"baseColorTexture":{"index":7}},"alphaMode":"MASK","alphaCutoff":0.05,"doubleSided":true},{"pbrMetallicRoughness":{"metallicFactor":0,"roughnessFactor":1,"baseColorTexture":{"index":8}},"alphaMode":"MASK","alphaCutoff":0.05,"doubleSided":true}],"textures":[{"sampler":0,"source":0,"name":"face.png"},{"sampler":1,"source":1,"name":"eye.png"},{"sampler":2,"source":2,"name":"mouth.png"},{"sampler":3,"source":3,"name":"chin.png"},{"sampler":4,"source":4,"name":"hat"},{"sampler":5,"source":5,"name":"shades.png"},{"sampler":6,"source":6,"name":"glassframe.png"},{"sampler":7,"source":7,"name":"frame1.png"},{"sampler":8,"source":8,"name":"frame2.png"}],"samplers":[{"magFilter":9728,"minFilter":9728,"wrapS":33071,"wrapT":33071},{"magFilter":9728,"minFilter":9728,"wrapS":33071,"wrapT":33071},{"magFilter":9728,"minFilter":9728,"wrapS":33071,"wrapT":33071},{"magFilter":9728,"minFilter":9728,"wrapS":33071,"wrapT":33071},{"magFilter":9728,"minFilter":9728,"wrapS":33071,"wrapT":33071},{"magFilter":9728,"minFilter":9728,"wrapS":33071,"wrapT":33071},{"magFilter":9728,"minFilter":9728,"wrapS":33071,"wrapT":33071},{"magFilter":9728,"minFilter":9728,"wrapS":33071,"wrapT":33071},{"magFilter":9728,"minFilter":9728,"wrapS":33071,"wrapT":33071}],"images":[{"mimeType":"image/png","uri":"data:image/png;base64,"},{"mimeType":"image/png","uri":"data:image/png;base64,"},{"mimeType":"image/png","uri":"data:image/png;base64,"},{"mimeType":"image/png","uri":"data:image/png;base64,"},{"mimeType":"image/png","uri":"data:image/png;base64,"},{"mimeType":"image/png","uri":"data:image/png;base64,"},{"mimeType":"image/png","uri":"data:image/png;base64,"},{"mimeType":"image/png","uri":"data:image/png;base64,"},{"mimeType":"image/png","uri":"data:image/png;base64,"}],"meshes":[{"primitives":[{"mode":4,"attributes":{"POSITION":0,"NORMAL":1,"TEXCOORD_0":2},"indices":3,"material":0}]},{"primitives":[{"mode":4,"attributes":{"POSITION":4,"NORMAL":5,"TEXCOORD_0":6},"indices":7,"material":1}]},{"primitives":[{"mode":4,"attributes":{"POSITION":8,"NORMAL":9,"TEXCOORD_0":10},"indices":11,"material":2}]},{"primitives":[{"mode":4,"attributes":{"POSITION":12,"NORMAL":13,"TEXCOORD_0":14},"indices":15,"material":3}]},{"primitives":[{"mode":4,"attributes":{"POSITION":16,"NORMAL":17,"TEXCOORD_0":18},"indices":19,"material":1}]},{"primitives":[{"mode":4,"attributes":{"POSITION":20,"NORMAL":21,"TEXCOORD_0":22},"indices":23,"material":4}]},{"primitives":[{"mode":4,"attributes":{"POSITION":24,"NORMAL":25,"TEXCOORD_0":26},"indices":27,"material":5}]},{"primitives":[{"mode":4,"attributes":{"POSITION":28,"NORMAL":29,"TEXCOORD_0":30},"indices":31,"material":5}]},{"primitives":[{"mode":4,"attributes":{"POSITION":32,"NORMAL":33,"TEXCOORD_0":34},"indices":35,"material":6}]},{"primitives":[{"mode":4,"attributes":{"POSITION":36,"NORMAL":37,"TEXCOORD_0":38},"indices":39,"material":7}]},{"primitives":[{"mode":4,"attributes":{"POSITION":40,"NORMAL":41,"TEXCOORD_0":42},"indices":43,"material":8}]}]}